<?xml version="1.0" encoding="UTF-8"?>
<svg width="42px" height="42px" viewBox="0 0 42 42" version="1.1" xmlns="http://www.w3.org/2000/svg" xmlns:xlink="http://www.w3.org/1999/xlink">
    <title>xxxdpi/编组 2备份 3</title>
    <g id="页面-1" stroke="none" stroke-width="1" fill="none" fill-rule="evenodd">
        <g id="icon" transform="translate(-26.000000, -136.000000)">
            <g id="编组-2备份" transform="translate(26.000000, 136.000000)">
                <rect id="矩形" stroke="#979797" fill="#D8D8D8" opacity="0" x="0" y="0" width="42" height="42"></rect>
                <g id="编组" transform="translate(5.250000, 4.260076)">
                    <rect id="矩形备份-3" fill="#000000" x="9.45" y="21.9899241" width="12.6" height="3.15" rx="1.5"></rect>
                    <path d="M17.4207129,0.459464832 L30.8121053,12.1002265 C31.2490823,12.4800784 31.5,13.0306608 31.5,13.6096568 L31.5,31.5399241 C31.5,32.6444936 30.6045695,33.5399241 29.5,33.5399241 L2,33.5399241 C0.8954305,33.5399241 1.3527075e-16,32.6444936 0,31.5399241 L0,13.6393826 C-1.04653863e-15,13.0432776 0.265902264,12.4782426 0.725227743,12.0982935 L14.8338353,0.427805925 C15.5877804,-0.195849293 16.6822563,-0.182454802 17.4207129,0.459464832 Z" id="形状结合备份-2" stroke="#000000" stroke-width="3"></path>
                </g>
            </g>
        </g>
    </g>
</svg>