<?xml version="1.0" encoding="UTF-8"?>
<svg width="38px" height="38px" viewBox="0 0 38 38" version="1.1" xmlns="http://www.w3.org/2000/svg" xmlns:xlink="http://www.w3.org/1999/xlink">
    <title>icon_add@2x</title>
    <g id="页面-1" stroke="none" stroke-width="1" fill="none" fill-rule="evenodd">
        <g id="首页" transform="translate(-302.000000, -1065.000000)" fill="#EA6102">
            <path d="M330.50245,1085.27315 L322.358935,1085.27315 L322.358935,1093.4171 C322.358935,1094.16636 321.75138,1094.77435 321.001902,1094.77435 C320.252205,1094.77435 319.644431,1094.16636 319.644431,1093.4171 L319.644431,1085.27315 L311.500697,1085.27315 C310.751,1085.27315 310.143226,1084.66559 310.143226,1083.9159 C310.143226,1083.1662 310.751,1082.55843 311.500697,1082.55843 L319.644431,1082.55843 L319.644431,1074.41513 C319.644431,1073.66543 320.251986,1073.05788 321.001683,1073.05788 C321.75138,1073.05788 322.358935,1073.66543 322.358935,1074.41513 L322.358935,1082.55886 L330.50245,1082.55886 C331.251928,1082.55886 331.859702,1083.16664 331.859702,1083.91612 C331.859702,1084.66581 331.251928,1085.27359 330.50245,1085.27359 L330.50245,1085.27315 Z M334.434254,1070.53786 C330.84565,1066.96678 326.076322,1065 321.001683,1065 C315.927263,1065 311.155964,1066.96678 307.56714,1070.53764 C303.978317,1074.10872 301.999931,1078.86163 301.999931,1083.9159 C301.999931,1088.96995 303.977441,1093.72197 307.56714,1097.29437 C311.15684,1100.86655 315.925511,1102.83223 321.000369,1102.83223 C326.075446,1102.83223 330.84565,1100.86743 334.43294,1097.29437 C338.020011,1093.7211 339.999931,1088.96863 339.999931,1083.91458 C339.999931,1078.86053 338.025706,1074.11004 334.434254,1070.53786 L334.434254,1070.53786 Z" id="icon_add"></path>
        </g>
    </g>
</svg>