<?xml version="1.0" encoding="UTF-8"?>
<svg width="40px" height="40px" viewBox="0 0 40 40" version="1.1" xmlns="http://www.w3.org/2000/svg" xmlns:xlink="http://www.w3.org/1999/xlink">
    <title>icon_reduce@2x</title>
    <g id="页面-1" stroke="none" stroke-width="1" fill="none" fill-rule="evenodd">
        <g id="首页" transform="translate(-225.000000, -1064.000000)">
            <g id="icon_reduce" transform="translate(225.999931, 1065.000000)">
                <path d="M20.268454,20.2731496 L18.0184994,20.2731496 L11.268454,20.2731496 C10.647057,20.2731496 10.1432952,19.6655946 10.1432952,18.9158972 C10.1432952,18.1661998 10.647057,17.5584258 11.268454,17.5584258 L18.0184994,17.5584258 L20.268454,17.5588639 L27.0183179,17.5588639 C27.6395334,17.5588639 28.1432952,18.1666378 28.1432952,18.9161162 C28.1432952,19.6658137 27.6395334,20.2735876 27.0183179,20.2735876 L20.268454,20.2731496 Z" id="Fill-1备份-2" fill="#A3A3A3"></path>
                <path d="M19.0017521,0 C13.9273322,0 9.15603278,1.96677848 5.5672096,5.53764222 C1.97838642,9.10872497 0,13.861627 0,18.9158972 C0,23.9699485 1.97751035,28.7219744 5.5672096,32.2943712 C9.15690885,35.8665491 13.9255801,37.8322325 19.000438,37.8322325 C24.075515,37.8322325 28.8457194,35.8674252 32.4330094,32.2943712 C36.0200805,28.7210983 38,23.9686344 38,18.9145831 C38,13.8605319 36.0257749,9.11003908 32.4343235,5.53786124 C28.8457194,1.96677848 24.0763911,0 19.0017521,0 Z" id="路径" stroke="#A3A3A3" stroke-width="2"></path>
            </g>
        </g>
    </g>
</svg>